<svg width="243" height="42" viewBox="0 0 243 42" fill="none" xmlns="http://www.w3.org/2000/svg">
<path d="M9.88233 32.9011C6.50916 32.9011 4.00564 32.1028 2.39811 30.4796C0.790587 28.8565 0 26.3286 0 22.9227V12.492C0 9.03286 0.790587 6.50501 2.39811 4.90847C3.97929 3.31194 6.48281 2.51367 9.82963 2.51367H15.2847C18.0781 2.51367 20.2127 3.09907 21.6357 4.26986C23.0851 5.44065 23.9021 7.30328 24.1129 9.83112C24.192 10.3899 24.0865 10.8157 23.7967 11.1083C23.5068 11.401 23.0851 11.5607 22.5317 11.5607C21.5303 11.5607 20.9505 11.0019 20.7924 9.88434C20.6607 8.34102 20.16 7.27667 19.3167 6.71788C18.4734 6.15909 17.1294 5.86639 15.2583 5.86639H9.80328C8.1694 5.86639 6.8781 6.07927 5.9294 6.4784C4.9807 6.87753 4.29552 7.56936 3.90023 8.52729C3.50493 9.48521 3.29411 10.8157 3.29411 12.492V22.9227C3.29411 24.5991 3.50493 25.9029 3.90023 26.8874C4.29552 27.8454 4.9807 28.5372 5.9294 28.9363C6.8781 29.3355 8.19575 29.5483 9.85598 29.5483H15.2583C16.7077 29.5483 17.8409 29.3887 18.6578 29.0428C19.4748 28.6968 20.0545 28.1381 20.3971 27.3132C20.7397 26.4883 20.8978 25.3175 20.8978 23.8274V21.4592L16.8922 21.406C15.7854 21.406 15.2583 20.8472 15.2583 19.7296C15.2583 18.6121 15.8117 18.0799 16.8922 18.0799L22.5581 18.1331C23.6649 18.1331 24.192 18.6919 24.192 19.7829V23.8274C24.192 26.9939 23.4804 29.2822 22.031 30.7191C20.5816 32.156 18.3153 32.8744 15.232 32.8744H9.82963L9.88233 32.9011Z" fill="white"/>
<path d="M79.7161 32.9002C77.4761 32.9002 75.8159 32.3414 74.7354 31.2504C73.655 30.1595 73.1016 28.4565 73.1016 26.1947V2.67246C73.1016 1.55488 73.655 0.996094 74.7618 0.996094C75.8686 0.996094 76.3957 1.55488 76.3957 2.67246V26.1947C76.3957 27.5252 76.6065 28.4033 77.0545 28.8556C77.5025 29.308 78.3721 29.5475 79.6898 29.5475C81.0074 29.5475 81.3764 30.1062 81.3764 31.1972C81.4027 32.3148 80.8493 32.8736 79.6898 32.8736L79.7161 32.9002Z" fill="white"/>
<path d="M94.6057 32.9002C91.6805 32.9002 89.4932 32.1817 88.0965 30.7715C86.6998 29.3612 85.9883 27.1527 85.9883 24.1991V19.0103C85.9883 16.0567 86.6998 13.8748 88.0965 12.4379C89.4932 11.0277 91.6805 10.3092 94.6057 10.3092H103.592V2.67246C103.592 1.55488 104.145 0.996094 105.252 0.996094C106.359 0.996094 106.886 1.55488 106.886 2.67246V31.1972C106.886 32.3148 106.333 32.8736 105.252 32.8736C104.172 32.8736 103.592 32.3148 103.592 31.1972V30.3457C102.907 31.1706 101.958 31.7826 100.799 32.235C99.6127 32.6607 98.137 32.8736 96.345 32.8736H94.632L94.6057 32.9002ZM94.6057 29.5475H96.3186C98.4268 29.5475 100.166 29.2548 101.536 28.6694C102.907 28.084 103.592 27.1793 103.592 25.9553V13.6619H94.6057C92.5765 13.6619 91.1798 14.0345 90.4419 14.8061C89.6777 15.5778 89.3087 16.9614 89.3087 18.9837V24.1725C89.3087 26.2213 89.6777 27.6316 90.4419 28.3767C91.2062 29.1483 92.5765 29.5208 94.6057 29.5208V29.5475Z" fill="white"/>
<path d="M117.93 22.9487V24.226C117.93 26.2482 118.299 27.6319 119.063 28.4036C119.827 29.1752 121.198 29.5477 123.227 29.5477H126.916C128.576 29.5477 129.789 29.3615 130.553 29.0156C131.317 28.6696 131.818 28.031 132.029 27.1263C132.16 26.6208 132.371 26.2482 132.635 25.9555C132.898 25.6894 133.294 25.5564 133.821 25.5564C134.348 25.5564 134.796 25.7161 135.086 26.0087C135.375 26.3014 135.481 26.7272 135.375 27.286C135.086 29.1752 134.242 30.5855 132.846 31.5168C131.449 32.4481 129.472 32.9005 126.916 32.9005H123.227C120.302 32.9005 118.114 32.182 116.718 30.7717C115.321 29.3615 114.609 27.1795 114.609 24.226V18.984C114.609 15.9772 115.321 13.7687 116.718 12.3584C118.114 10.9481 120.302 10.2563 123.227 10.3095H126.916C129.841 10.3095 132.002 11.0013 133.425 12.4116C134.822 13.8219 135.534 16.0038 135.534 18.984V21.2724C135.534 22.3899 134.98 22.9487 133.9 22.9487H117.956H117.93ZM123.227 13.6622C121.198 13.6356 119.801 14.0081 119.063 14.7532C118.299 15.5248 117.93 16.9351 117.93 18.984V19.596H132.213V18.984C132.213 16.9351 131.844 15.5248 131.106 14.7798C130.368 14.0347 128.972 13.6622 126.943 13.6622H123.253H123.227Z" fill="white"/>
<path d="M145.336 32.8996C144.229 32.8996 143.676 32.3408 143.676 31.2232V11.985C143.676 10.8674 144.229 10.3352 145.336 10.3352C146.443 10.3352 146.97 10.894 146.97 11.985V13.209C148.498 11.2931 150.923 10.3086 154.243 10.3086H155.508C158.433 10.3086 160.594 11.027 162.017 12.4373C163.44 13.8476 164.126 16.0295 164.126 19.0097V31.2232C164.126 32.3408 163.572 32.8996 162.492 32.8996C161.411 32.8996 160.832 32.3408 160.832 31.2232V19.0097C160.832 16.9608 160.463 15.5505 159.698 14.8055C158.934 14.0605 157.564 13.6879 155.561 13.6879H154.296C152.32 13.6879 150.659 13.954 149.315 14.4862C147.971 15.0184 147.207 15.8432 147.023 16.9608V31.2498C147.023 32.3674 146.469 32.9262 145.389 32.9262L145.336 32.8996Z" fill="white"/>
<path d="M174.43 32.9002C173.323 32.9002 172.77 32.3414 172.77 31.2238V2.67246C172.77 1.55488 173.323 0.996094 174.43 0.996094C175.537 0.996094 176.064 1.55488 176.064 2.67246V20.3674L187.053 10.8414C187.87 10.123 188.66 10.1762 189.372 11.001C190.083 11.8525 190.031 12.6508 189.214 13.3692L180.965 20.5536L189.214 30.0264C189.952 30.8779 189.899 31.6496 189.082 32.368C188.265 33.113 187.474 33.0598 186.71 32.2083L178.409 22.7622L176.064 24.8111V31.2238C176.064 32.3414 175.51 32.9002 174.43 32.9002Z" fill="white"/>
<path d="M196.723 22.9487V24.226C196.723 26.2482 197.092 27.6319 197.856 28.4036C198.62 29.1752 199.991 29.5477 202.02 29.5477H205.709C207.369 29.5477 208.582 29.3615 209.346 29.0156C210.11 28.6696 210.611 28.031 210.822 27.1263C210.953 26.6208 211.164 26.2482 211.428 25.9555C211.691 25.6894 212.087 25.5564 212.614 25.5564C213.141 25.5564 213.589 25.7161 213.879 26.0087C214.168 26.3014 214.274 26.7272 214.168 27.286C213.879 29.1752 213.035 30.5855 211.639 31.5168C210.242 32.4481 208.265 32.9005 205.709 32.9005H202.02C199.095 32.9005 196.907 32.182 195.511 30.7717C194.114 29.3615 193.402 27.1795 193.402 24.226V18.984C193.402 15.9772 194.114 13.7687 195.511 12.3584C196.907 10.9481 199.095 10.2563 202.02 10.3095H205.709C208.634 10.3095 210.795 11.0013 212.218 12.4116C213.615 13.8219 214.327 16.0038 214.327 18.984V21.2724C214.327 22.3899 213.773 22.9487 212.693 22.9487H196.749H196.723ZM202.02 13.6622C199.991 13.6356 198.594 14.0081 197.856 14.7532C197.092 15.5248 196.723 16.9351 196.723 18.984V19.596H211.006V18.984C211.006 16.9351 210.637 15.5248 209.899 14.7798C209.161 14.0347 207.765 13.6622 205.735 13.6622H202.046H202.02Z" fill="white"/>
<path d="M228.294 41.9998C226.186 41.9998 224.631 41.4676 223.604 40.4299C222.576 39.3655 222.049 37.769 222.049 35.6403C222.049 33.5116 222.602 33.9905 223.683 33.9905C224.763 33.9905 225.343 34.5493 225.343 35.6403C225.343 36.7312 225.527 37.6626 225.923 38.0617C226.318 38.4608 227.082 38.6737 228.268 38.6737H236.701C237.887 38.6737 238.677 38.4608 239.073 38.0617C239.468 37.6626 239.653 36.8377 239.653 35.6403V29.7065C238.757 31.0103 237.702 31.8618 236.464 32.2876C235.225 32.7133 233.855 32.9262 232.353 32.9262H230.455C227.557 32.9262 225.422 32.2343 224.052 30.8507C222.681 29.467 221.996 27.3383 221.996 24.4379V11.985C221.996 10.8674 222.549 10.3086 223.63 10.3086C224.71 10.3086 225.29 10.8674 225.29 11.985V24.3847C225.29 26.3538 225.659 27.7108 226.397 28.4293C227.135 29.1477 228.479 29.5202 230.455 29.5202H232.353C234.883 29.5202 236.727 29.0945 237.887 28.243C239.046 27.3915 239.626 26.1143 239.626 24.3581V11.985C239.626 10.8674 240.18 10.3086 241.26 10.3086C242.341 10.3086 242.92 10.8674 242.92 11.985V35.6137C242.92 37.7424 242.393 39.3655 241.365 40.4033C240.338 41.4676 238.757 41.9732 236.648 41.9732H228.215L228.294 41.9998Z" fill="white"/>
</svg>
