<svg width="243" height="43" viewBox="0 0 243 43" fill="none" xmlns="http://www.w3.org/2000/svg">
<g clip-path="url(#clip0_124_82)">
<path d="M9.88233 33.901C6.50916 33.901 4.00564 33.1028 2.39811 31.4796C0.790587 29.8565 0 27.3286 0 23.9227V13.492C0 10.0329 0.790587 7.50501 2.39811 5.90847C3.97929 4.31194 6.48281 3.51367 9.82963 3.51367H15.2847C18.0781 3.51367 20.2127 4.09907 21.6357 5.26986C23.0851 6.44065 23.9021 8.30328 24.1129 10.8311C24.192 11.3899 24.0865 11.8157 23.7967 12.1083C23.5068 12.401 23.0851 12.5607 22.5317 12.5607C21.5303 12.5607 20.9505 12.0019 20.7924 10.8843C20.6607 9.34102 20.16 8.27667 19.3167 7.71788C18.4734 7.15909 17.1294 6.86639 15.2583 6.86639H9.80327C8.1694 6.86639 6.8781 7.07927 5.9294 7.4784C4.9807 7.87753 4.29552 8.56936 3.90023 9.52729C3.50493 10.4852 3.29411 11.8157 3.29411 13.492V23.9227C3.29411 25.5991 3.50493 26.9029 3.90023 27.8874C4.29552 28.8454 4.9807 29.5372 5.9294 29.9363C6.8781 30.3355 8.19575 30.5483 9.85598 30.5483H15.2583C16.7077 30.5483 17.8409 30.3887 18.6578 30.0428C19.4748 29.6968 20.0545 29.1381 20.3971 28.3132C20.7397 27.4883 20.8978 26.3175 20.8978 24.8274V22.4592L16.8922 22.406C15.7854 22.406 15.2583 21.8472 15.2583 20.7296C15.2583 19.6121 15.8117 19.0799 16.8922 19.0799L22.5581 19.1331C23.6649 19.1331 24.192 19.6919 24.192 20.7829V24.8274C24.192 27.9939 23.4804 30.2822 22.031 31.7191C20.5816 33.156 18.3153 33.8744 15.232 33.8744H9.82963L9.88233 33.901Z" fill="white"/>
<path d="M79.7161 33.9002C77.4761 33.9002 75.8159 33.3414 74.7354 32.2504C73.655 31.1595 73.1016 29.4565 73.1016 27.1947V3.67246C73.1016 2.55488 73.655 1.99609 74.7618 1.99609C75.8686 1.99609 76.3957 2.55488 76.3957 3.67246V27.1947C76.3957 28.5252 76.6065 29.4033 77.0545 29.8556C77.5025 30.308 78.3721 30.5475 79.6898 30.5475C81.0074 30.5475 81.3764 31.1062 81.3764 32.1972C81.4027 33.3148 80.8493 33.8736 79.6898 33.8736L79.7161 33.9002Z" fill="white"/>
<path d="M94.6057 33.9002C91.6805 33.9002 89.4932 33.1817 88.0965 31.7715C86.6998 30.3612 85.9883 28.1527 85.9883 25.1991V20.0103C85.9883 17.0567 86.6998 14.8748 88.0965 13.4379C89.4932 12.0277 91.6805 11.3092 94.6057 11.3092H103.592V3.67246C103.592 2.55488 104.145 1.99609 105.252 1.99609C106.359 1.99609 106.886 2.55488 106.886 3.67246V32.1972C106.886 33.3148 106.333 33.8736 105.252 33.8736C104.172 33.8736 103.592 33.3148 103.592 32.1972V31.3457C102.907 32.1706 101.958 32.7826 100.799 33.235C99.6127 33.6607 98.137 33.8736 96.345 33.8736H94.632L94.6057 33.9002ZM94.6057 30.5475H96.3186C98.4268 30.5475 100.166 30.2548 101.536 29.6694C102.907 29.084 103.592 28.1793 103.592 26.9553V14.6619H94.6057C92.5765 14.6619 91.1798 15.0345 90.4419 15.8061C89.6777 16.5778 89.3087 17.9614 89.3087 19.9837V25.1725C89.3087 27.2213 89.6777 28.6316 90.4419 29.3767C91.2062 30.1483 92.5765 30.5208 94.6057 30.5208V30.5475Z" fill="white"/>
<path d="M117.93 23.9487V25.226C117.93 27.2482 118.299 28.6319 119.063 29.4036C119.827 30.1752 121.198 30.5477 123.227 30.5477H126.916C128.576 30.5477 129.789 30.3615 130.553 30.0156C131.317 29.6696 131.818 29.031 132.029 28.1263C132.16 27.6208 132.371 27.2482 132.635 26.9555C132.898 26.6894 133.294 26.5564 133.821 26.5564C134.348 26.5564 134.796 26.7161 135.086 27.0087C135.375 27.3014 135.481 27.7272 135.375 28.286C135.086 30.1752 134.242 31.5855 132.846 32.5168C131.449 33.4481 129.472 33.9005 126.916 33.9005H123.227C120.302 33.9005 118.114 33.182 116.718 31.7717C115.321 30.3615 114.609 28.1795 114.609 25.226V19.984C114.609 16.9772 115.321 14.7687 116.718 13.3584C118.114 11.9481 120.302 11.2563 123.227 11.3095H126.916C129.841 11.3095 132.002 12.0013 133.425 13.4116C134.822 14.8219 135.534 17.0038 135.534 19.984V22.2724C135.534 23.3899 134.98 23.9487 133.9 23.9487H117.956H117.93ZM123.227 14.6622C121.198 14.6356 119.801 15.0081 119.063 15.7532C118.299 16.5248 117.93 17.9351 117.93 19.984V20.596H132.213V19.984C132.213 17.9351 131.844 16.5248 131.106 15.7798C130.368 15.0347 128.972 14.6622 126.943 14.6622H123.253H123.227Z" fill="white"/>
<path d="M145.336 33.8996C144.229 33.8996 143.676 33.3408 143.676 32.2232V12.985C143.676 11.8674 144.229 11.3352 145.336 11.3352C146.443 11.3352 146.97 11.894 146.97 12.985V14.209C148.498 12.2931 150.923 11.3086 154.243 11.3086H155.508C158.433 11.3086 160.594 12.027 162.017 13.4373C163.44 14.8476 164.126 17.0295 164.126 20.0097V32.2232C164.126 33.3408 163.572 33.8996 162.492 33.8996C161.411 33.8996 160.832 33.3408 160.832 32.2232V20.0097C160.832 17.9608 160.463 16.5505 159.698 15.8055C158.934 15.0605 157.564 14.6879 155.561 14.6879H154.296C152.32 14.6879 150.659 14.954 149.315 15.4862C147.971 16.0184 147.207 16.8432 147.023 17.9608V32.2498C147.023 33.3674 146.469 33.9262 145.389 33.9262L145.336 33.8996Z" fill="white"/>
<path d="M174.43 33.9002C173.323 33.9002 172.77 33.3414 172.77 32.2238V3.67246C172.77 2.55488 173.323 1.99609 174.43 1.99609C175.537 1.99609 176.064 2.55488 176.064 3.67246V21.3674L187.053 11.8414C187.87 11.123 188.66 11.1762 189.372 12.001C190.083 12.8525 190.031 13.6508 189.214 14.3692L180.965 21.5536L189.214 31.0264C189.952 31.8779 189.899 32.6496 189.082 33.368C188.265 34.113 187.474 34.0598 186.71 33.2083L178.409 23.7622L176.064 25.8111V32.2238C176.064 33.3414 175.51 33.9002 174.43 33.9002Z" fill="white"/>
<path d="M196.723 23.9487V25.226C196.723 27.2482 197.092 28.6319 197.856 29.4036C198.62 30.1752 199.991 30.5477 202.02 30.5477H205.709C207.369 30.5477 208.582 30.3615 209.346 30.0156C210.11 29.6696 210.611 29.031 210.822 28.1263C210.953 27.6208 211.164 27.2482 211.428 26.9555C211.691 26.6894 212.087 26.5564 212.614 26.5564C213.141 26.5564 213.589 26.7161 213.879 27.0087C214.168 27.3014 214.274 27.7272 214.168 28.286C213.879 30.1752 213.035 31.5855 211.639 32.5168C210.242 33.4481 208.265 33.9005 205.709 33.9005H202.02C199.095 33.9005 196.907 33.182 195.511 31.7717C194.114 30.3615 193.402 28.1795 193.402 25.226V19.984C193.402 16.9772 194.114 14.7687 195.511 13.3584C196.907 11.9481 199.095 11.2563 202.02 11.3095H205.709C208.634 11.3095 210.795 12.0013 212.218 13.4116C213.615 14.8219 214.327 17.0038 214.327 19.984V22.2724C214.327 23.3899 213.773 23.9487 212.693 23.9487H196.749H196.723ZM202.02 14.6622C199.991 14.6356 198.594 15.0081 197.856 15.7532C197.092 16.5248 196.723 17.9351 196.723 19.984V20.596H211.006V19.984C211.006 17.9351 210.637 16.5248 209.899 15.7798C209.161 15.0347 207.765 14.6622 205.735 14.6622H202.046H202.02Z" fill="white"/>
<path d="M228.294 42.9998C226.186 42.9998 224.631 42.4676 223.604 41.4299C222.576 40.3655 222.049 38.769 222.049 36.6403C222.049 34.5116 222.602 34.9905 223.683 34.9905C224.763 34.9905 225.343 35.5493 225.343 36.6403C225.343 37.7312 225.527 38.6626 225.923 39.0617C226.318 39.4608 227.082 39.6737 228.268 39.6737H236.701C237.887 39.6737 238.677 39.4608 239.073 39.0617C239.468 38.6626 239.653 37.8377 239.653 36.6403V30.7065C238.757 32.0103 237.702 32.8618 236.464 33.2876C235.225 33.7133 233.855 33.9262 232.353 33.9262H230.455C227.557 33.9262 225.422 33.2343 224.052 31.8507C222.681 30.467 221.996 28.3383 221.996 25.4379V12.985C221.996 11.8674 222.549 11.3086 223.63 11.3086C224.71 11.3086 225.29 11.8674 225.29 12.985V25.3847C225.29 27.3538 225.659 28.7108 226.397 29.4293C227.135 30.1477 228.479 30.5202 230.455 30.5202H232.353C234.883 30.5202 236.727 30.0945 237.887 29.243C239.046 28.3915 239.626 27.1143 239.626 25.3581V12.985C239.626 11.8674 240.18 11.3086 241.26 11.3086C242.341 11.3086 242.92 11.8674 242.92 12.985V36.6137C242.92 38.7424 242.393 40.3655 241.365 41.4033C240.338 42.4676 238.757 42.9732 236.648 42.9732H228.215L228.294 42.9998Z" fill="white"/>
<path d="M64.0392 11.4684L55.6063 2.95359C51.706 -0.98453 45.355 -0.98453 41.4284 2.95359L32.9955 11.4684C29.0953 15.4066 29.0953 21.8193 32.9955 25.784L41.4284 34.2989C43.2995 36.1881 45.7239 37.1726 48.1747 37.2525V28.1522H45.1178C44.3536 28.1522 43.7211 27.5136 43.7211 26.742C43.7211 25.9703 44.3536 25.3317 45.1178 25.3317H48.1747V22.9901H44.538C44.09 22.9901 43.7211 22.6176 43.7211 22.1652V18.3335C43.7211 17.8812 44.09 17.5087 44.538 17.5087H48.1747V15.1671H45.1178C44.3536 15.1671 43.7211 14.5285 43.7211 13.7568C43.7211 12.9851 44.3536 12.3465 45.1178 12.3465H48.1747V10.0582C48.1747 8.83416 49.1498 7.84963 50.362 7.84963H50.7046C51.9169 7.84963 52.8919 8.83416 52.8919 10.0582V36.1881C53.867 35.7092 54.7893 35.0705 55.5799 34.2457L64.0128 25.7308C67.9131 21.7927 67.9131 15.3799 64.0128 11.4152L64.0392 11.4684Z" fill="url(#paint0_linear_124_82)"/>
<path opacity="0.4" d="M62.1423 13.6501L53.4722 4.89581C52.1546 3.56536 50.3889 2.82031 48.5442 2.82031C46.6995 2.82031 44.9339 3.56536 43.6162 4.89581L34.9462 13.6501C33.6285 14.9806 32.8906 16.7634 32.8906 18.626C32.8906 20.4886 33.6285 22.2714 34.9462 23.6019L43.6162 32.3562C44.8548 33.6068 46.4887 34.3253 48.2017 34.4051V33.3141C46.7522 33.2343 45.4082 32.6223 44.3805 31.5845L35.7104 22.8302C34.6036 21.7126 33.9711 20.1959 33.9711 18.626C33.9711 17.0561 34.5772 15.5394 35.7104 14.4218L44.3805 5.66747C45.4873 4.54989 46.9894 3.91128 48.5442 3.91128C50.0991 3.91128 51.6012 4.52328 52.708 5.66747L61.3781 14.4218C62.4849 15.5394 63.1174 17.0561 63.1174 18.626C63.1174 20.1959 62.5113 21.7126 61.3781 22.8302L52.9188 31.3717V32.8618C53.1033 32.7021 53.2878 32.5425 53.4722 32.3562L62.1423 23.6019C63.46 22.2714 64.1979 20.4886 64.1979 18.626C64.1979 16.7634 63.46 14.9806 62.1423 13.6501Z" fill="url(#paint1_linear_124_82)"/>
</g>
<defs>
<linearGradient id="paint0_linear_124_82" x1="30.0967" y1="18.6262" x2="66.9907" y2="18.6262" gradientUnits="userSpaceOnUse">
<stop stop-color="#FFBC00"/>
<stop offset="0.5" stop-color="#FFD300"/>
<stop offset="1" stop-color="#FFBF3E"/>
</linearGradient>
<linearGradient id="paint1_linear_124_82" x1="32.8906" y1="18.626" x2="64.1979" y2="18.626" gradientUnits="userSpaceOnUse">
<stop stop-opacity="0.1"/>
<stop offset="0.5" stop-opacity="0.4"/>
<stop offset="1" stop-color="#F3CA24"/>
</linearGradient>
<clipPath id="clip0_124_82">
<rect width="243" height="43" fill="white"/>
</clipPath>
</defs>
</svg>
